{
    "asset": {
        "version": "2.0"
    },
    "buffers": [
        {
            "byteLength": 12,
            "uri": "bin.bin"
        }
    ],
    "bufferViews": [
        {
            "buffer": 0,
            "byteOffset": 0,
            "byteLength": 12
        }
    ],
    "accessors": [
        {
            "bufferView": 0,
            "byteOffset": 0,
            "componentType": 5126,
            "count": 1,
            "type": "VEC3",
            "min": [12.078431129455566, 48.56470489501953, 195.2627410888672],
            "max": [12.078431129455566, 48.56470489501953, 195.2627410888672]
        }
    ],
    "meshes": [
        {
            "name": "mesh1",
            "primitives": [
                {
                    "attributes": {
                        "POSITION": 0
                    },
                    "mode": 0
                }
            ]
        }
    ],
    "cameras": [
        {
            "name": "camera1",
            "type": "perspective",
            "perspective": {
                "yfov": 0.7853981633974483,
                "aspectRatio": 1.7777777777777777,
                "znear": 0.1,
                "zfar": 1000
            }
        }
    ],
    "nodes": [
        {
            "name": "node1",
            "mesh": 0,
            "camera": 0,
            "children": [
                1
            ]
        },
        {
            "name": "node2",
            "mesh": 0,
            "camera": 0
        }
    ],
    "scenes": [
        {
            "name": "scene1",
            "nodes": [
                0
            ]
        }
    ]
}